<svg xmlns="http://www.w3.org/2000/svg" width="760" height="490" viewBox="0 0 760 490">
<rect width="760" height="490" fill="white"/>
<style>text{font-family:serif;font-size:14px;fill:#202020}.line{fill:none;stroke:#303030;stroke-width:1.8}</style>
<text x="70" y="24">DAMS model longitudinal-1: one synthetic world, hierarchy/central</text>
<text x="70" y="48">Unfinished review/settlement records (records)</text>
<path d="M70,60V210H720" fill="none" stroke="#404040"/>
<text x="60" y="214" text-anchor="end">0</text>
<text x="60" y="139.0" text-anchor="end">4.19e+04</text>
<text x="60" y="64" text-anchor="end">8.38e+04</text>
<polyline class="line" points="70.000,210.000 70.594,208.209 71.187,206.501 71.781,208.030 72.374,208.030 72.968,206.297 73.562,206.180 74.155,205.974 74.749,205.795 75.342,205.645 75.936,207.135 76.530,207.135 77.123,205.371 77.717,205.296 78.311,205.108 78.904,204.911 79.498,204.728 80.091,206.239 80.685,206.239 81.279,204.497 81.872,204.404 82.466,204.210 83.059,203.999 83.653,203.793 84.247,205.344 84.840,205.344 85.434,203.591 86.027,203.505 86.621,203.324 87.215,203.118 87.808,202.998 88.402,204.449 88.995,204.449 89.589,202.701 90.183,202.676 90.776,202.432 91.370,202.217 91.963,201.988 92.557,203.553 93.151,203.553 93.744,201.816 94.338,201.721 94.932,201.519 95.525,201.322 96.119,201.114 96.712,202.658 97.306,202.658 97.900,200.905 98.493,200.815 99.087,200.643 99.680,200.434 100.274,200.265 100.868,201.762 101.461,201.762 102.055,200.013 102.648,199.904 103.242,199.735 103.836,199.504 104.429,199.393 105.023,200.867 105.616,200.867 106.210,199.126 106.804,198.999 107.397,198.849 107.991,198.630 108.584,198.458 109.178,199.972 109.772,199.972 110.365,198.204 110.959,198.122 111.553,197.943 112.146,197.744 112.740,197.556 113.333,199.076 113.927,199.076 114.521,197.325 115.114,197.223 115.708,197.049 116.301,196.827 116.895,196.671 117.489,198.181 118.082,198.181 118.676,196.442 119.269,196.327 119.863,196.134 120.457,195.914 121.050,195.776 121.644,197.286 122.237,197.286 122.831,195.520 123.425,195.441 124.018,195.278 124.612,195.052 125.205,194.873 125.799,196.390 126.393,196.390 126.986,194.607 127.580,194.558 128.174,194.388 128.767,194.139 129.361,193.948 129.954,195.495 130.548,195.495 131.142,193.758 131.735,193.657 132.329,193.512 132.922,193.263 133.516,193.093 134.110,194.599 134.703,194.599 135.297,192.800 135.890,192.789 136.484,192.597 137.078,192.407 137.671,192.171 138.265,193.704 138.858,193.704 139.452,191.978 140.046,191.863 140.639,191.688 141.233,191.476 141.826,191.294 142.420,192.809 143.014,192.809 143.607,191.057 144.201,190.975 144.795,190.792 145.388,190.610 145.982,190.448 146.575,191.913 147.169,191.913 147.763,190.173 148.356,190.070 148.950,189.891 149.543,189.691 150.137,189.494 150.731,191.018 151.324,191.018 151.918,189.306 152.511,189.170 153.105,188.987 153.699,188.795 154.292,188.641 154.886,190.122 155.479,190.122 156.073,188.446 156.667,188.267 157.260,188.113 157.854,187.902 158.447,187.714 159.041,189.227 159.635,189.227 160.228,187.481 160.822,187.420 161.416,187.209 162.009,186.996 162.603,186.840 163.196,188.332 163.790,188.332 164.384,186.557 164.977,186.503 165.571,186.319 166.164,186.104 166.758,185.916 167.352,187.436 167.945,187.436 168.539,185.706 169.132,185.624 169.726,185.436 170.320,185.212 170.913,185.038 171.507,186.541 172.100,186.541 172.694,184.804 173.288,184.709 173.881,184.544 174.475,184.336 175.068,184.129 175.662,185.645 176.256,185.645 176.849,183.898 177.443,183.812 178.037,183.625 178.630,183.445 179.224,183.251 179.817,184.750 180.411,184.750 181.005,183.009 181.598,182.907 182.192,182.732 182.785,182.533 183.379,182.350 183.973,183.855 184.566,183.855 185.160,182.119 185.753,182.016 186.347,181.831 186.941,181.629 187.534,181.457 188.128,182.959 188.721,182.959 189.315,181.212 189.909,181.113 190.502,180.909 191.096,180.733 191.689,180.517 192.283,182.064 192.877,182.064 193.470,180.282 194.064,180.173 194.658,180.006 195.251,179.809 195.845,179.655 196.438,181.169 197.032,181.169 197.626,179.376 198.219,179.303 198.813,179.109 199.406,178.930 200.000,178.751 200.594,180.273 201.187,180.273 201.781,178.506 202.374,178.438 202.968,178.217 203.562,178.017 204.155,177.832 204.749,179.378 205.342,179.378 205.936,177.626 206.530,177.548 207.123,177.343 207.717,177.105 208.311,176.923 208.904,178.482 209.498,178.482 210.091,176.715 210.685,176.622 211.279,176.439 211.872,176.221 212.466,176.049 213.059,177.587 213.653,177.587 214.247,175.818 214.840,175.717 215.434,175.547 216.027,175.365 216.621,175.159 217.215,176.692 217.808,176.692 218.402,174.901 218.995,174.831 219.589,174.636 220.183,174.457 220.776,174.240 221.370,175.796 221.963,175.796 222.557,174.016 223.151,173.905 223.744,173.740 224.338,173.534 224.932,173.379 225.525,174.901 226.119,174.901 226.712,173.151 227.306,173.037 227.900,172.850 228.493,172.637 229.087,172.464 229.680,174.005 230.274,174.005 230.868,172.229 231.461,172.136 232.055,171.948 232.648,171.747 233.242,171.586 233.836,173.110 234.429,173.110 235.023,171.350 235.616,171.255 236.210,171.056 236.804,170.857 237.397,170.675 237.991,172.215 238.584,172.215 239.178,170.474 239.772,170.367 240.365,170.157 240.959,169.980 241.553,169.785 242.146,171.319 242.740,171.319 243.333,169.532 243.927,169.460 244.521,169.274 245.114,169.067 245.708,168.891 246.301,170.424 246.895,170.424 247.489,168.653 248.082,168.569 248.676,168.388 249.269,168.180 249.863,167.985 250.457,169.529 251.050,169.529 251.644,167.750 252.237,167.688 252.831,167.505 253.425,167.269 254.018,167.089 254.612,168.633 255.205,168.633 255.799,166.869 256.393,166.780 256.986,166.631 257.580,166.422 258.174,166.203 258.767,167.738 259.361,167.738 259.954,165.960 260.548,165.888 261.142,165.730 261.735,165.524 262.329,165.336 262.922,166.842 263.516,166.842 264.110,165.027 264.703,164.994 265.297,164.824 265.890,164.627 266.484,164.434 267.078,165.947 267.671,165.947 268.265,164.151 268.858,164.095 269.452,163.914 270.046,163.719 270.639,163.531 271.233,165.052 271.826,165.052 272.420,163.327 273.014,163.184 273.607,163.032 274.201,162.818 274.795,162.647 275.388,164.156 275.982,164.156 276.575,162.378 277.169,162.306 277.763,162.125 278.356,161.923 278.950,161.724 279.543,163.261 280.137,163.261 280.731,161.486 281.324,161.386 281.918,161.228 282.511,161.010 283.105,162.545 283.699,162.545 284.292,162.545 284.886,160.773 285.479,160.704 286.073,160.542 286.667,160.285 287.260,161.828 287.854,161.828 288.447,161.828 289.041,160.052 289.635,159.982 290.228,159.808 290.822,159.570 291.416,159.403 292.009,160.933 292.603,160.933 293.196,159.142 293.790,159.067 294.384,158.909 294.977,158.682 295.571,158.519 296.164,160.037 296.758,160.037 297.352,158.286 297.945,158.170 298.539,158.012 299.132,157.786 299.726,157.623 300.320,159.142 300.913,159.142 301.507,157.339 302.100,157.253 302.694,157.090 303.288,156.925 303.881,156.705 304.475,158.247 305.068,158.247 305.662,156.481 306.256,156.397 306.849,156.212 307.443,155.980 308.037,155.800 308.630,157.351 309.224,157.351 309.817,155.586 310.411,155.476 311.005,155.312 311.598,155.090 312.192,154.923 312.785,156.456 313.379,156.456 313.973,154.687 314.566,154.576 315.160,154.411 315.753,154.207 316.347,154.022 316.941,155.560 317.534,155.560 318.128,153.779 318.721,153.693 319.315,153.532 319.909,153.326 320.502,153.121 321.096,154.665 321.689,154.665 322.283,152.919 322.877,152.783 323.470,152.629 324.064,152.425 324.658,152.251 325.251,153.770 325.845,153.770 326.438,152.000 327.032,151.902 327.626,151.735 328.219,151.521 328.813,151.358 329.406,152.874 330.000,152.874 330.594,151.091 331.187,151.032 331.781,150.835 332.374,150.622 332.968,150.441 333.562,151.979 334.155,151.979 334.749,150.240 335.342,150.109 335.936,149.955 336.530,149.735 337.123,149.543 337.717,151.084 338.311,151.084 338.904,149.296 339.498,149.218 340.091,149.053 340.685,148.818 341.279,148.645 341.872,150.188 342.466,150.188 343.059,148.406 343.653,148.331 344.247,148.125 344.840,147.914 345.434,147.742 346.027,149.293 346.621,149.293 347.215,147.504 347.808,147.425 348.402,147.242 348.995,147.040 349.589,146.873 350.183,148.397 350.776,148.397 351.370,146.605 351.963,146.512 352.557,146.368 353.151,146.150 353.744,145.983 354.338,147.502 354.932,147.502 355.525,145.700 356.119,145.636 356.712,145.452 357.306,145.244 357.900,145.083 358.493,146.607 359.087,146.607 359.680,144.836 360.274,144.735 360.868,144.560 361.461,144.350 362.055,144.178 362.648,145.711 363.242,145.711 363.836,143.928 364.429,143.820 365.023,143.659 365.616,143.457 366.210,143.288 366.804,144.816 367.397,144.816 367.991,143.034 368.584,142.962 369.178,142.740 369.772,142.556 370.365,142.368 370.959,143.920 371.553,143.920 372.146,142.169 372.740,142.076 373.333,141.859 373.927,141.677 374.521,141.517 375.114,143.025 375.708,143.025 376.301,141.227 376.895,141.156 377.489,141.030 378.082,140.763 378.676,140.599 379.269,142.130 379.863,142.130 380.457,140.341 381.050,140.269 381.644,140.101 382.237,139.897 382.831,139.707 383.425,141.234 384.018,141.234 384.612,139.445 385.205,139.372 385.799,139.200 386.393,138.998 386.986,138.820 387.580,140.339 388.174,140.339 388.767,138.552 389.361,138.460 389.954,138.317 390.548,138.113 391.142,137.943 391.735,139.444 392.329,139.444 392.922,137.646 393.516,137.578 394.110,137.400 394.703,137.184 395.297,137.017 395.890,138.548 396.484,138.548 397.078,136.772 397.671,136.693 398.265,136.485 398.858,136.303 399.452,136.136 400.046,137.653 400.639,137.653 401.233,135.885 401.826,135.780 402.420,135.606 403.014,135.405 403.607,135.246 404.201,136.757 404.795,136.757 405.388,134.990 405.982,134.904 406.575,134.743 407.169,134.515 407.763,134.334 408.356,135.862 408.950,135.862 409.543,134.052 410.137,134.025 410.731,133.804 411.324,133.616 411.918,133.427 412.511,134.967 413.105,134.967 413.699,133.188 414.292,133.115 414.886,132.934 415.479,132.712 416.073,132.551 416.667,134.071 417.260,134.071 417.854,132.313 418.447,132.221 419.041,132.032 419.635,131.827 420.228,131.634 420.822,133.176 421.416,133.176 422.009,131.396 422.603,131.310 423.196,131.149 423.790,130.927 424.384,130.773 424.977,132.280 425.571,132.280 426.164,130.488 426.758,130.448 427.352,130.260 427.945,130.047 428.539,129.829 429.132,131.385 429.726,131.385 430.320,129.627 430.913,129.530 431.507,129.353 432.100,129.109 432.694,128.937 433.288,130.490 433.881,130.490 434.475,128.715 435.068,128.617 435.662,128.428 436.256,128.223 436.849,128.056 437.443,129.594 438.037,129.594 438.630,127.795 439.224,127.716 439.817,127.538 440.411,127.341 441.005,127.164 441.598,128.699 442.192,128.699 442.785,126.888 443.379,126.826 443.973,126.641 444.566,126.459 445.160,126.280 445.753,127.804 446.347,127.804 446.941,126.011 447.534,125.918 448.128,125.760 448.721,125.517 449.315,125.368 449.909,126.908 450.502,126.908 451.096,125.107 451.689,125.046 452.283,124.840 452.877,124.643 453.470,124.437 454.064,126.013 454.658,126.013 455.251,124.236 455.845,124.156 456.438,123.941 457.032,123.728 457.626,123.540 458.219,125.117 458.813,125.117 459.406,123.318 460.000,123.228 460.594,123.062 461.187,122.845 461.781,122.689 462.374,124.222 462.968,124.222 463.562,122.417 464.155,122.342 464.749,122.155 465.342,121.942 465.936,121.774 466.530,123.327 467.123,123.327 467.717,121.556 468.311,121.455 468.904,121.258 469.498,121.049 470.091,120.877 470.685,122.431 471.279,122.431 471.872,120.642 472.466,120.551 473.059,120.363 473.653,120.164 474.247,119.978 474.840,121.536 475.434,121.536 476.027,119.754 476.621,119.643 477.215,119.482 477.808,119.245 478.402,119.088 478.995,120.640 479.589,120.640 480.183,118.860 480.776,118.755 481.370,118.556 481.963,118.364 482.557,118.191 483.151,119.745 483.744,119.745 484.338,117.954 484.932,117.849 485.525,117.680 486.119,117.474 486.712,117.315 487.306,118.850 487.900,118.850 488.493,117.048 489.087,116.962 489.680,116.780 490.274,116.566 490.868,116.405 491.461,117.954 492.055,117.954 492.648,116.180 493.242,116.063 493.836,115.906 494.429,115.707 495.023,115.517 495.616,117.059 496.210,117.059 496.804,115.259 497.397,115.196 497.991,115.001 498.584,114.802 499.178,114.595 499.772,116.163 500.365,116.163 500.959,114.371 501.553,114.308 502.146,114.115 502.740,113.932 503.333,113.723 503.927,115.268 504.521,115.268 505.114,113.495 505.708,113.397 506.301,113.214 506.895,113.017 507.489,112.829 508.082,114.373 508.676,114.373 509.269,112.589 509.863,112.525 510.457,112.312 511.050,112.109 511.644,111.919 512.237,113.477 512.831,113.477 513.425,111.699 514.018,111.617 514.612,111.438 515.205,111.201 515.799,111.049 516.393,112.582 516.986,112.582 517.580,110.793 518.174,110.721 518.767,110.551 519.361,110.318 519.954,110.157 520.548,111.687 521.142,111.687 521.735,109.876 522.329,109.797 522.922,109.634 523.516,109.437 524.110,109.276 524.703,110.791 525.297,110.791 525.890,108.993 526.484,108.920 527.078,108.753 527.671,108.540 528.265,108.343 528.858,109.896 529.452,109.896 530.046,108.062 530.639,108.015 531.233,107.840 531.826,107.627 532.420,107.466 533.014,109.000 533.607,109.000 534.201,107.213 534.795,107.133 535.388,106.941 535.982,106.717 536.575,106.574 537.169,108.105 537.763,108.105 538.356,106.329 538.950,106.235 539.543,106.056 540.137,105.831 540.731,105.680 541.324,107.210 541.918,107.210 542.511,105.412 543.105,105.342 543.699,105.156 544.292,104.946 544.886,104.765 545.479,106.314 546.073,106.314 546.667,104.532 547.260,104.432 547.854,104.248 548.447,104.060 549.041,103.882 549.635,105.419 550.228,105.419 550.822,103.624 551.416,103.549 552.009,103.372 552.603,103.173 553.196,102.971 553.790,104.523 554.384,104.523 554.977,102.722 555.571,102.661 556.164,102.469 556.758,102.289 557.352,102.058 557.945,103.628 558.539,103.628 559.132,101.837 559.726,101.753 560.320,101.565 560.913,101.370 561.507,101.171 562.100,102.733 562.694,102.733 563.288,100.951 563.881,100.847 564.475,100.670 565.068,100.466 565.662,100.285 566.256,101.837 566.849,101.837 567.443,100.088 568.037,99.948 568.630,99.780 569.224,99.558 569.817,99.382 570.411,100.942 571.005,100.942 571.598,99.142 572.192,99.074 572.785,98.883 573.379,98.677 573.973,98.503 574.566,100.047 575.160,100.047 575.753,98.249 576.347,98.157 576.941,97.994 577.534,97.778 578.128,97.615 578.721,99.151 579.315,99.151 579.909,97.316 580.502,97.271 581.096,97.101 581.689,96.871 582.283,96.716 582.877,98.256 583.470,98.256 584.064,96.467 584.658,96.374 585.251,96.212 585.845,95.990 586.438,95.815 587.032,97.360 587.626,97.360 588.219,95.539 588.813,95.482 589.406,95.292 590.000,95.074 590.594,94.900 591.187,96.465 591.781,96.465 592.374,94.706 592.968,94.590 593.562,94.406 594.155,94.207 594.749,94.012 595.342,95.570 595.936,95.570 596.530,93.795 597.123,93.680 597.717,93.519 598.311,93.301 598.904,93.127 599.498,94.674 600.091,94.674 600.685,92.876 601.279,92.780 601.872,92.608 602.466,92.448 603.059,92.244 603.653,93.779 604.247,93.779 604.840,91.956 605.434,91.893 606.027,91.718 606.621,91.508 607.215,91.338 607.808,92.883 608.402,92.883 608.995,91.105 609.589,91.017 610.183,90.813 610.776,90.600 611.370,90.419 611.963,91.988 612.557,91.988 613.151,90.199 613.744,90.118 614.338,89.929 614.932,89.728 615.525,89.551 616.119,91.093 616.712,91.093 617.306,89.314 617.900,89.202 618.493,89.033 619.087,88.842 619.680,88.655 620.274,90.197 620.868,90.197 621.461,88.414 622.055,88.340 622.648,88.150 623.242,87.948 623.836,87.753 624.429,89.302 625.023,89.302 625.616,87.515 626.210,87.425 626.804,87.259 627.397,87.013 627.991,86.841 628.584,88.406 629.178,88.406 629.772,86.625 630.365,86.557 630.959,86.361 631.553,86.154 632.146,85.942 632.740,87.511 633.333,87.511 633.927,85.731 634.521,85.647 635.114,85.473 635.708,85.249 636.301,85.047 636.895,86.616 637.489,86.616 638.082,84.823 638.676,84.752 639.269,84.551 639.863,84.365 640.457,84.162 641.050,85.720 641.644,85.720 642.237,83.964 642.831,83.838 643.425,83.665 644.018,83.466 644.612,83.280 645.205,84.825 645.799,84.825 646.393,83.045 646.986,82.939 647.580,82.776 648.174,82.552 648.767,82.391 649.361,83.930 649.954,83.930 650.548,82.132 651.142,82.051 651.735,81.863 652.329,81.666 652.922,81.498 653.516,83.034 654.110,83.034 654.703,81.265 655.297,81.177 655.890,81.000 656.484,80.774 657.078,80.601 657.671,82.139 658.265,82.139 658.858,80.327 659.452,80.278 660.046,80.069 660.639,79.881 661.233,79.714 661.826,81.243 662.420,81.243 663.014,79.424 663.607,79.381 664.201,79.207 664.795,79.000 665.388,78.822 665.982,80.348 666.575,80.348 667.169,78.523 667.763,78.493 668.356,78.307 668.950,78.093 669.543,77.884 670.137,79.453 670.731,79.453 671.324,77.665 671.918,77.574 672.511,77.397 673.105,77.182 673.699,76.996 674.292,78.557 674.886,78.557 675.479,76.749 676.073,76.666 676.667,76.507 677.260,76.319 677.854,76.106 678.447,77.662 679.041,77.662 679.635,75.825 680.228,75.787 680.822,75.615 681.416,75.359 682.009,75.223 682.603,76.766 683.196,76.766 683.790,74.977 684.384,74.879 684.977,74.704 685.571,74.492 686.164,74.340 686.758,75.871 687.352,75.871 687.945,74.061 688.539,73.973 689.132,73.803 689.726,73.604 690.320,73.425 690.913,74.976 691.507,74.976 692.100,73.171 692.694,73.081 693.288,72.900 693.881,72.737 694.475,72.553 695.068,74.080 695.662,74.080 696.256,72.297 696.849,72.196 697.443,72.008 698.037,71.820 698.630,71.636 699.224,73.185 699.817,73.185 700.411,71.392 701.005,71.315 701.598,71.122 702.192,70.914 702.785,70.744 703.379,72.290 703.973,72.290 704.566,70.497 705.160,70.402 705.753,70.255 706.347,69.999 706.941,69.842 707.534,71.394 708.128,71.394 708.721,69.560 709.315,69.526 709.909,69.342 710.502,69.134 711.096,68.941 711.689,70.499 712.283,70.499 712.877,68.699 713.470,68.624 714.064,68.448 714.658,68.259 715.251,68.060 715.845,69.603 716.438,69.603 717.032,67.784 717.626,67.730 718.219,67.546 718.813,67.338 719.406,67.143 720.000,68.708"/>
<text x="70" y="232">0</text><text x="720" y="232" text-anchor="end">1095 days</text>
<text x="70" y="258">Formal authority / linear credit share deviation (TV [0,1])</text>
<path d="M70,270V420H720" fill="none" stroke="#404040"/>
<text x="60" y="424" text-anchor="end">0</text>
<text x="60" y="349.0" text-anchor="end">0.149</text>
<text x="60" y="274" text-anchor="end">0.298</text>
<polyline class="line" points="70.000,420.000 70.594,420.000 71.187,420.000 71.781,277.284 72.374,277.284 72.968,277.143 73.562,281.564 74.155,285.733 74.749,289.491 75.342,292.897 75.936,295.710 76.530,295.823 77.123,295.823 77.717,298.783 78.311,300.879 78.904,303.744 79.498,306.185 80.091,308.183 80.685,308.183 81.279,308.183 81.872,310.055 82.466,311.507 83.059,313.025 83.653,314.540 84.247,315.737 84.840,315.737 85.434,315.737 86.027,316.641 86.621,317.495 87.215,317.888 87.808,318.929 88.402,319.762 88.995,319.942 89.589,319.942 90.183,320.652 90.776,321.127 91.370,321.644 91.963,322.247 92.557,322.719 93.151,322.719 93.744,322.719 94.338,323.282 94.932,324.064 95.525,324.296 96.119,324.639 96.712,325.341 97.306,325.341 97.900,325.341 98.493,325.767 99.087,326.223 99.680,326.704 100.274,326.956 100.868,327.111 101.461,327.145 102.055,327.145 102.648,327.332 103.242,327.760 103.836,327.700 104.429,328.104 105.023,328.463 105.616,328.463 106.210,328.463 106.804,328.796 107.397,328.988 107.991,329.146 108.584,329.349 109.178,329.487 109.772,329.487 110.365,329.487 110.959,329.615 111.553,329.967 112.146,330.144 112.740,330.409 113.333,330.526 113.927,330.526 114.521,330.526 115.114,330.518 115.708,330.762 116.301,330.763 116.895,330.925 117.489,331.128 118.082,331.128 118.676,331.128 119.269,331.169 119.863,331.043 120.457,331.213 121.050,331.360 121.644,331.491 122.237,331.491 122.831,331.510 123.425,331.601 124.018,331.798 124.612,331.809 125.205,331.933 125.799,332.052 126.393,332.052 126.986,332.052 127.580,332.075 128.174,332.364 128.767,332.472 129.361,332.694 129.954,332.928 130.548,332.928 131.142,332.928 131.735,333.077 132.329,333.219 132.922,333.253 133.516,333.222 134.110,333.308 134.703,333.308 135.297,333.308 135.890,333.425 136.484,333.585 137.078,333.638 137.671,333.657 138.265,333.711 138.858,333.711 139.452,333.711 140.046,333.865 140.639,333.784 141.233,333.841 141.826,333.854 142.420,334.062 143.014,334.062 143.607,333.974 144.201,333.989 144.795,334.033 145.388,334.266 145.982,334.337 146.575,334.400 147.169,334.400 147.763,334.400 148.356,334.466 148.950,334.450 149.543,334.328 150.137,334.415 150.731,334.371 151.324,334.371 151.918,334.371 152.511,334.427 153.105,334.503 153.699,334.468 154.292,334.598 154.886,334.578 155.479,334.578 156.073,334.578 156.667,334.617 157.260,334.624 157.854,334.601 158.447,334.722 159.041,334.716 159.635,334.716 160.228,334.668 160.822,334.661 161.416,334.720 162.009,334.751 162.603,334.820 163.196,334.916 163.790,335.073 164.384,335.073 164.977,334.992 165.571,335.026 166.164,335.030 166.758,335.191 167.352,335.015 167.945,335.015 168.539,335.015 169.132,335.055 169.726,335.033 170.320,335.051 170.913,335.093 171.507,334.971 172.100,334.971 172.694,334.971 173.288,334.972 173.881,335.074 174.475,335.070 175.068,335.096 175.662,335.011 176.256,335.023 176.849,335.023 177.443,335.091 178.037,335.097 178.630,335.133 179.224,335.169 179.817,335.258 180.411,335.258 181.005,335.258 181.598,335.279 182.192,335.333 182.785,335.389 183.379,335.421 183.973,335.402 184.566,335.402 185.160,335.402 185.753,335.388 186.347,335.440 186.941,335.455 187.534,335.450 188.128,335.514 188.721,335.514 189.315,335.514 189.909,335.477 190.502,335.541 191.096,335.667 191.689,335.610 192.283,335.692 192.877,335.911 193.470,335.911 194.064,335.804 194.658,335.870 195.251,335.948 195.845,335.920 196.438,336.044 197.032,336.044 197.626,336.044 198.219,336.029 198.813,336.089 199.406,336.063 200.000,336.145 200.594,336.210 201.187,336.210 201.781,336.210 202.374,336.173 202.968,336.096 203.562,336.070 204.155,336.027 204.749,336.126 205.342,336.126 205.936,336.126 206.530,336.121 207.123,336.059 207.717,336.090 208.311,336.050 208.904,336.093 209.498,336.099 210.091,335.965 210.685,335.900 211.279,335.976 211.872,335.961 212.466,336.031 213.059,336.027 213.653,336.027 214.247,336.027 214.840,336.005 215.434,335.918 216.027,335.880 216.621,336.152 217.215,336.111 217.808,336.111 218.402,336.111 218.995,336.114 219.589,336.099 220.183,336.150 220.776,336.292 221.370,336.404 221.963,336.404 222.557,336.404 223.151,336.393 223.744,336.479 224.338,336.515 224.932,336.528 225.525,336.479 226.119,336.479 226.712,336.479 227.306,336.534 227.900,336.520 228.493,336.509 229.087,336.530 229.680,336.558 230.274,336.558 230.868,336.558 231.461,336.569 232.055,336.630 232.648,336.641 233.242,336.611 233.836,336.600 234.429,336.600 235.023,336.583 235.616,336.589 236.210,336.582 236.804,336.757 237.397,336.792 237.991,336.791 238.584,336.791 239.178,336.791 239.772,336.794 240.365,336.869 240.959,336.888 241.553,336.873 242.146,336.859 242.740,336.892 243.333,336.892 243.927,336.920 244.521,336.915 245.114,336.937 245.708,336.995 246.301,336.867 246.895,336.867 247.489,336.867 248.082,336.889 248.676,337.079 249.269,337.082 249.863,337.056 250.457,337.092 251.050,337.092 251.644,336.953 252.237,337.011 252.831,337.027 253.425,337.043 254.018,337.079 254.612,337.098 255.205,337.098 255.799,337.193 256.393,337.203 256.986,337.153 257.580,337.251 258.174,337.224 258.767,337.253 259.361,337.253 259.954,337.062 260.548,337.185 261.142,337.221 261.735,337.212 262.329,337.155 262.922,337.188 263.516,337.188 264.110,337.142 264.703,337.354 265.297,337.328 265.890,337.319 266.484,337.371 267.078,337.303 267.671,337.303 268.265,337.471 268.858,337.528 269.452,337.579 270.046,337.567 270.639,337.554 271.233,337.586 271.826,337.586 272.420,337.586 273.014,337.599 273.607,337.611 274.201,337.638 274.795,337.753 275.388,337.666 275.982,337.666 276.575,337.666 277.169,337.731 277.763,337.678 278.356,337.735 278.950,337.666 279.543,337.841 280.137,337.841 280.731,337.841 281.324,337.832 281.918,337.651 282.511,337.616 283.105,337.596 283.699,337.596 284.292,337.638 284.886,337.638 285.479,337.671 286.073,337.786 286.667,337.752 287.260,337.770 287.854,337.914 288.447,337.914 289.041,337.914 289.635,337.926 290.228,337.929 290.822,337.926 291.416,337.937 292.009,337.947 292.603,337.947 293.196,337.947 293.790,337.905 294.384,337.896 294.977,337.900 295.571,337.927 296.164,337.934 296.758,337.934 297.352,337.934 297.945,337.918 298.539,337.980 299.132,337.962 299.726,337.961 300.320,337.955 300.913,337.955 301.507,337.957 302.100,337.937 302.694,337.928 303.288,337.916 303.881,337.896 304.475,337.960 305.068,337.969 305.662,337.969 306.256,337.980 306.849,337.911 307.443,337.839 308.037,337.860 308.630,337.872 309.224,337.872 309.817,337.872 310.411,337.881 311.005,338.026 311.598,338.072 312.192,338.053 312.785,337.974 313.379,337.974 313.973,337.974 314.566,338.008 315.160,338.020 315.753,337.976 316.347,338.021 316.941,338.085 317.534,338.085 318.128,338.085 318.721,338.145 319.315,338.151 319.909,338.158 320.502,338.191 321.096,338.194 321.689,338.194 322.283,338.194 322.877,338.243 323.470,338.207 324.064,338.319 324.658,338.316 325.251,338.385 325.845,338.385 326.438,338.385 327.032,338.333 327.626,338.391 328.219,338.431 328.813,338.426 329.406,338.430 330.000,338.430 330.594,338.430 331.187,338.381 331.781,338.431 332.374,338.460 332.968,338.482 333.562,338.471 334.155,338.471 334.749,338.471 335.342,338.473 335.936,338.501 336.530,338.700 337.123,338.700 337.717,338.722 338.311,338.722 338.904,338.685 339.498,338.597 340.091,338.605 340.685,338.629 341.279,338.634 341.872,338.616 342.466,338.616 343.059,338.616 343.653,338.601 344.247,338.609 344.840,338.591 345.434,338.614 346.027,338.609 346.621,338.609 347.215,338.609 347.808,338.576 348.402,338.651 348.995,338.723 349.589,338.780 350.183,338.834 350.776,338.834 351.370,338.834 351.963,338.836 352.557,338.833 353.151,338.826 353.744,338.852 354.338,338.803 354.932,338.822 355.525,338.822 356.119,338.853 356.712,338.863 357.306,338.956 357.900,338.881 358.493,339.050 359.087,339.050 359.680,339.050 360.274,338.991 360.868,339.035 361.461,339.026 362.055,339.023 362.648,338.999 363.242,338.999 363.836,338.999 364.429,338.987 365.023,339.030 365.616,339.061 366.210,339.096 366.804,339.147 367.397,339.147 367.991,339.147 368.584,339.165 369.178,339.155 369.772,339.112 370.365,339.119 370.959,339.153 371.553,339.153 372.146,339.153 372.740,339.186 373.333,339.192 373.927,339.174 374.521,339.194 375.114,339.190 375.708,339.190 376.301,339.227 376.895,339.209 377.489,339.097 378.082,339.222 378.676,339.224 379.269,339.224 379.863,339.224 380.457,339.224 381.050,339.268 381.644,339.236 382.237,339.217 382.831,339.262 383.425,339.220 384.018,339.242 384.612,339.242 385.205,339.347 385.799,339.349 386.393,339.374 386.986,339.389 387.580,339.378 388.174,339.378 388.767,339.378 389.361,339.382 389.954,339.391 390.548,339.373 391.142,339.339 391.735,339.357 392.329,339.357 392.922,339.357 393.516,339.305 394.110,339.275 394.703,339.211 395.297,339.222 395.890,339.203 396.484,339.203 397.078,339.203 397.671,339.218 398.265,339.228 398.858,339.208 399.452,339.203 400.046,339.146 400.639,339.146 401.233,339.280 401.826,339.253 402.420,339.278 403.014,339.259 403.607,339.283 404.201,339.292 404.795,339.446 405.388,339.446 405.982,339.454 406.575,339.431 407.169,339.417 407.763,339.253 408.356,339.237 408.950,339.179 409.543,339.179 410.137,339.157 410.731,339.161 411.324,339.191 411.918,339.151 412.511,339.217 413.105,339.217 413.699,339.296 414.292,339.270 414.886,339.280 415.479,339.309 416.073,339.273 416.667,339.269 417.260,339.269 417.854,339.393 418.447,339.429 419.041,339.428 419.635,339.431 420.228,339.421 420.822,339.396 421.416,339.396 422.009,339.396 422.603,339.387 423.196,339.389 423.790,339.375 424.384,339.390 424.977,339.405 425.571,339.405 426.164,339.382 426.758,339.244 427.352,339.223 427.945,339.204 428.539,339.219 429.132,339.164 429.726,339.164 430.320,339.164 430.913,339.171 431.507,339.128 432.100,339.175 432.694,339.177 433.288,339.183 433.881,339.183 434.475,339.183 435.068,339.259 435.662,339.257 436.256,339.267 436.849,339.258 437.443,339.382 438.037,339.382 438.630,339.382 439.224,339.383 439.817,339.353 440.411,339.344 441.005,339.250 441.598,339.253 442.192,339.419 442.785,339.419 443.379,339.477 443.973,339.461 444.566,339.513 445.160,339.498 445.753,339.641 446.347,339.641 446.941,339.641 447.534,339.702 448.128,339.672 448.721,339.719 449.315,339.704 449.909,339.690 450.502,339.690 451.096,339.690 451.689,339.697 452.283,339.693 452.877,339.691 453.470,339.672 454.064,339.672 454.658,339.672 455.251,339.829 455.845,339.843 456.438,339.811 457.032,339.852 457.626,339.830 458.219,339.828 458.813,339.828 459.406,339.828 460.000,339.787 460.594,339.767 461.187,339.799 461.781,339.783 462.374,339.789 462.968,339.789 463.562,339.789 464.155,339.775 464.749,339.780 465.342,339.787 465.936,339.791 466.530,339.791 467.123,339.762 467.717,339.762 468.311,339.798 468.904,339.752 469.498,339.749 470.091,339.751 470.685,339.751 471.279,339.751 471.872,339.751 472.466,339.758 473.059,339.860 473.653,339.899 474.247,339.888 474.840,339.716 475.434,339.716 476.027,339.716 476.621,339.611 477.215,339.761 477.808,339.760 478.402,339.743 478.995,339.699 479.589,339.699 480.183,339.699 480.776,339.683 481.370,339.740 481.963,339.762 482.557,339.759 483.151,339.736 483.744,339.736 484.338,339.736 484.932,339.746 485.525,339.769 486.119,339.757 486.712,339.736 487.306,339.769 487.900,339.769 488.493,339.769 489.087,339.638 489.680,339.678 490.274,339.813 490.868,339.816 491.461,339.808 492.055,339.808 492.648,339.875 493.242,339.836 493.836,339.830 494.429,339.821 495.023,339.830 495.616,339.826 496.210,339.876 496.804,339.876 497.397,339.863 497.991,339.860 498.584,339.878 499.178,339.982 499.772,339.972 500.365,340.027 500.959,340.027 501.553,339.895 502.146,339.895 502.740,339.858 503.333,339.877 503.927,339.866 504.521,340.008 505.114,340.008 505.708,340.010 506.301,340.087 506.895,340.068 507.489,340.034 508.082,340.030 508.676,340.057 509.269,340.057 509.863,340.072 510.457,340.056 511.050,340.079 511.644,340.080 512.237,340.070 512.831,340.118 513.425,340.118 514.018,340.115 514.612,340.123 515.205,340.140 515.799,340.127 516.393,340.116 516.986,340.116 517.580,340.116 518.174,340.109 518.767,339.974 519.361,339.991 519.954,339.969 520.548,339.964 521.142,339.964 521.735,340.129 522.329,340.221 522.922,340.225 523.516,340.221 524.110,340.204 524.703,340.202 525.297,340.202 525.890,340.202 526.484,340.145 527.078,340.168 527.671,340.166 528.265,340.174 528.858,340.198 529.452,340.157 530.046,340.157 530.639,340.256 531.233,340.230 531.826,340.236 532.420,340.234 533.014,340.246 533.607,340.246 534.201,340.246 534.795,340.318 535.388,340.293 535.982,340.282 536.575,340.314 537.169,340.294 537.763,340.294 538.356,340.317 538.950,340.309 539.543,340.360 540.137,340.171 540.731,340.155 541.324,340.166 541.918,340.166 542.511,340.166 543.105,340.172 543.699,340.139 544.292,340.186 544.886,340.157 545.479,340.164 546.073,340.164 546.667,340.164 547.260,340.131 547.854,340.118 548.447,340.112 549.041,340.050 549.635,340.126 550.228,340.126 550.822,340.126 551.416,340.286 552.009,340.263 552.603,340.285 553.196,340.286 553.790,340.310 554.384,340.310 554.977,340.310 555.571,340.319 556.164,340.404 556.758,340.426 557.352,340.409 557.945,340.376 558.539,340.376 559.132,340.377 559.726,340.395 560.320,340.400 560.913,340.390 561.507,340.377 562.100,340.386 562.694,340.328 563.288,340.328 563.881,340.326 564.475,340.327 565.068,340.306 565.662,340.335 566.256,340.297 566.849,340.297 567.443,340.297 568.037,340.282 568.630,340.302 569.224,340.266 569.817,340.288 570.411,340.284 571.005,340.284 571.598,340.284 572.192,340.271 572.785,340.261 573.379,340.197 573.973,340.325 574.566,340.468 575.160,340.468 575.753,340.468 576.347,340.453 576.941,340.465 577.534,340.442 578.128,340.423 578.721,340.435 579.315,340.435 579.909,340.435 580.502,340.406 581.096,340.399 581.689,340.421 582.283,340.406 582.877,340.507 583.470,340.593 584.064,340.593 584.658,340.571 585.251,340.565 585.845,340.537 586.438,340.548 587.032,340.529 587.626,340.529 588.219,340.529 588.813,340.574 589.406,340.574 590.000,340.540 590.594,340.544 591.187,340.429 591.781,340.429 592.374,340.445 592.968,340.423 593.562,340.443 594.155,340.449 594.749,340.454 595.342,340.446 595.936,340.446 596.530,340.446 597.123,340.448 597.717,340.413 598.311,340.417 598.904,340.402 599.498,340.456 600.091,340.456 600.685,340.615 601.279,340.601 601.872,340.628 602.466,340.616 603.059,340.629 603.653,340.616 604.247,340.616 604.840,340.616 605.434,340.640 606.027,340.665 606.621,340.602 607.215,340.581 607.808,340.627 608.402,340.627 608.995,340.627 609.589,340.605 610.183,340.623 610.776,340.600 611.370,340.593 611.963,340.619 612.557,340.619 613.151,340.619 613.744,340.604 614.338,340.614 614.932,340.624 615.525,340.602 616.119,340.664 616.712,340.664 617.306,340.814 617.900,340.802 618.493,340.815 619.087,340.791 619.680,340.787 620.274,340.780 620.868,340.780 621.461,340.794 622.055,340.896 622.648,340.878 623.242,340.886 623.836,340.894 624.429,340.903 625.023,340.903 625.616,340.902 626.210,340.988 626.804,340.982 627.397,340.816 627.991,340.798 628.584,340.818 629.178,340.818 629.772,340.806 630.365,340.827 630.959,340.829 631.553,340.840 632.146,340.836 632.740,340.858 633.333,340.858 633.927,340.858 634.521,340.852 635.114,340.863 635.708,340.883 636.301,340.873 636.895,340.873 637.489,340.873 638.082,340.873 638.676,340.898 639.269,340.855 639.863,340.666 640.457,340.662 641.050,340.670 641.644,340.781 642.237,340.781 642.831,340.798 643.425,340.782 644.018,340.797 644.612,340.794 645.205,340.811 645.799,340.811 646.393,340.757 646.986,340.698 647.580,340.668 648.174,340.678 648.767,340.673 649.361,340.676 649.954,340.676 650.548,340.676 651.142,340.685 651.735,340.664 652.329,340.681 652.922,340.685 653.516,340.711 654.110,340.711 654.703,340.711 655.297,340.709 655.890,340.697 656.484,340.700 657.078,340.685 657.671,340.683 658.265,340.683 658.858,340.683 659.452,340.661 660.046,340.675 660.639,340.672 661.233,340.665 661.826,340.655 662.420,340.655 663.014,340.692 663.607,340.696 664.201,340.820 664.795,340.845 665.388,340.836 665.982,340.790 666.575,340.790 667.169,340.790 667.763,340.776 668.356,340.955 668.950,340.955 669.543,340.960 670.137,340.965 670.731,341.031 671.324,341.031 671.918,341.018 672.511,341.017 673.105,341.005 673.699,340.969 674.292,340.945 674.886,340.945 675.479,340.945 676.073,340.894 676.667,340.925 677.260,340.893 677.854,340.883 678.447,340.914 679.041,340.914 679.635,340.968 680.228,340.985 680.822,340.998 681.416,340.786 682.009,340.935 682.603,340.933 683.196,340.933 683.790,340.930 684.384,340.930 684.977,340.951 685.571,340.931 686.164,340.935 686.758,340.944 687.352,340.889 687.945,340.889 688.539,340.882 689.132,340.888 689.726,340.907 690.320,340.960 690.913,340.952 691.507,340.952 692.100,340.903 692.694,340.907 693.288,340.936 693.881,340.953 694.475,340.927 695.068,340.939 695.662,340.939 696.256,341.008 696.849,341.030 697.443,341.052 698.037,341.067 698.630,341.079 699.224,341.085 699.817,341.085 700.411,341.201 701.005,341.145 701.598,341.108 702.192,341.115 702.785,341.126 703.379,341.112 703.973,341.112 704.566,341.112 705.160,341.151 705.753,341.170 706.347,341.172 706.941,341.162 707.534,341.208 708.128,341.208 708.721,341.208 709.315,341.211 709.909,341.224 710.502,341.278 711.096,341.273 711.689,341.295 712.283,341.295 712.877,341.295 713.470,341.346 714.064,341.359 714.658,341.190 715.251,341.194 715.845,341.215 716.438,341.215 717.032,341.215 717.626,341.184 718.219,341.202 718.813,341.227 719.406,341.251 720.000,341.226"/>
<text x="70" y="442">0</text><text x="720" y="442" text-anchor="end">1095 days</text>
<text x="70" y="480">Recorded daily snapshots; line connects observations. No empirical calibration or uncertainty interval.</text></svg>