<svg xmlns="http://www.w3.org/2000/svg" width="760" height="490" viewBox="0 0 760 490">
<rect width="760" height="490" fill="white"/>
<style>text{font-family:serif;font-size:14px;fill:#202020}.line{fill:none;stroke:#303030;stroke-width:1.8}</style>
<text x="70" y="24">DAMS model longitudinal-1: one synthetic world, hierarchy/central</text>
<text x="70" y="48">Unfinished review/settlement records (records)</text>
<path d="M70,60V210H720" fill="none" stroke="#404040"/>
<text x="60" y="214" text-anchor="end">0</text>
<text x="60" y="139.0" text-anchor="end">4.19e+04</text>
<text x="60" y="64" text-anchor="end">8.37e+04</text>
<polyline class="line" points="70.000,210.000 70.594,208.211 71.187,206.543 71.781,208.032 72.374,208.032 72.968,206.323 73.562,206.176 74.155,205.984 74.749,205.839 75.342,205.633 75.936,207.136 76.530,207.136 77.123,205.433 77.717,205.320 78.311,205.112 78.904,204.931 79.498,204.743 80.091,206.240 80.685,206.240 81.279,204.505 81.872,204.410 82.466,204.240 83.059,204.028 83.653,203.828 84.247,205.345 84.840,205.345 85.434,203.613 86.027,203.534 86.621,203.351 87.215,203.158 87.808,202.970 88.402,204.449 88.995,204.449 89.589,202.794 90.183,202.665 90.776,202.447 91.370,202.243 91.963,202.024 92.557,203.554 93.151,203.554 93.744,201.825 94.338,201.719 94.932,201.569 95.525,201.356 96.119,201.137 96.712,202.658 97.306,202.658 97.900,200.899 98.493,200.815 99.087,200.656 99.680,200.459 100.274,200.258 100.868,201.762 101.461,201.762 102.055,200.009 102.648,199.928 103.242,199.762 103.836,199.565 104.429,199.425 105.023,200.867 105.616,200.867 106.210,199.138 106.804,199.015 107.397,198.861 107.991,198.662 108.584,198.517 109.178,199.971 109.772,199.971 110.365,198.234 110.959,198.125 111.553,197.947 112.146,197.775 112.740,197.594 113.333,199.076 113.927,199.076 114.521,197.394 115.114,197.231 115.708,197.068 116.301,196.814 116.895,196.692 117.489,198.180 118.082,198.180 118.676,196.461 119.269,196.376 119.863,196.140 120.457,195.939 121.050,195.789 121.644,197.285 122.237,197.285 122.831,195.554 123.425,195.450 124.018,195.293 124.612,195.065 125.205,194.886 125.799,196.389 126.393,196.389 126.986,194.655 127.580,194.560 128.174,194.401 128.767,194.152 129.361,193.975 129.954,195.493 130.548,195.493 131.142,193.783 131.735,193.675 132.329,193.541 132.922,193.280 133.516,193.120 134.110,194.598 134.703,194.598 135.297,192.875 135.890,192.787 136.484,192.595 137.078,192.404 137.671,192.223 138.265,193.702 138.858,193.702 139.452,191.963 140.046,191.888 140.639,191.703 141.233,191.539 141.826,191.329 142.420,192.807 143.014,192.807 143.607,191.050 144.201,190.999 144.795,190.804 145.388,190.621 145.982,190.442 146.575,191.911 147.169,191.911 147.763,190.156 148.356,190.073 148.950,189.909 149.543,189.715 150.137,189.547 150.731,191.016 151.324,191.016 151.918,189.296 152.511,189.167 153.105,188.997 153.699,188.778 154.292,188.655 154.886,190.120 155.479,190.120 156.073,188.422 156.667,188.309 157.260,188.105 157.854,187.877 158.447,187.736 159.041,189.224 159.635,189.224 160.228,187.560 160.822,187.430 161.416,187.184 162.009,186.978 162.603,186.817 163.196,188.329 163.790,188.329 164.384,186.588 164.977,186.539 165.571,186.339 166.164,186.124 166.758,185.922 167.352,187.433 167.945,187.433 168.539,185.708 169.132,185.608 169.726,185.441 170.320,185.216 170.913,185.010 171.507,186.538 172.100,186.538 172.694,184.832 173.288,184.700 173.881,184.546 174.475,184.308 175.068,184.157 175.662,185.642 176.256,185.642 176.849,183.858 177.443,183.822 178.037,183.674 178.630,183.457 179.224,183.235 179.817,184.747 180.411,184.747 181.005,183.007 181.598,182.911 182.192,182.730 182.785,182.583 183.379,182.380 183.973,183.851 184.566,183.851 185.160,182.110 185.753,181.999 186.347,181.847 186.941,181.664 187.534,181.494 188.128,182.955 188.721,182.955 189.315,181.222 189.909,181.107 190.502,180.926 191.096,180.715 191.689,180.528 192.283,182.060 192.877,182.060 193.470,180.276 194.064,180.208 194.658,180.016 195.251,179.826 195.845,179.631 196.438,181.164 197.032,181.164 197.626,179.425 198.219,179.301 198.813,179.092 199.406,178.893 200.000,178.737 200.594,180.269 201.187,180.269 201.781,178.528 202.374,178.411 202.968,178.234 203.562,178.014 204.155,177.815 204.749,179.373 205.342,179.373 205.936,177.603 206.530,177.517 207.123,177.329 207.717,177.131 208.311,176.933 208.904,178.477 209.498,178.477 210.091,176.704 210.685,176.622 211.279,176.441 211.872,176.212 212.466,176.033 213.059,177.582 213.653,177.582 214.247,175.819 214.840,175.726 215.434,175.565 216.027,175.339 216.621,175.141 217.215,176.686 217.808,176.686 218.402,174.926 218.995,174.818 219.589,174.662 220.183,174.472 220.776,174.272 221.370,175.791 221.963,175.791 222.557,174.016 223.151,173.946 223.744,173.758 224.338,173.555 224.932,173.364 225.525,174.895 226.119,174.895 226.712,173.117 227.306,173.038 227.900,172.855 228.493,172.654 229.087,172.499 229.680,174.000 230.274,174.000 230.868,172.221 231.461,172.148 232.055,171.963 232.648,171.748 233.242,171.576 233.836,173.104 234.429,173.104 235.023,171.352 235.616,171.250 236.210,171.066 236.804,170.849 237.397,170.666 237.991,172.208 238.584,172.208 239.178,170.480 239.772,170.355 240.365,170.186 240.959,169.952 241.553,169.805 242.146,171.313 242.740,171.313 243.333,169.520 243.927,169.446 244.521,169.276 245.114,169.065 245.708,168.906 246.301,170.417 246.895,170.417 247.489,168.664 248.082,168.569 248.676,168.415 249.269,168.139 249.863,167.976 250.457,169.522 251.050,169.522 251.644,167.784 252.237,167.686 252.831,167.519 253.425,167.283 254.018,167.120 254.612,168.626 255.205,168.626 255.799,166.869 256.393,166.794 256.986,166.590 257.580,166.407 258.174,166.212 258.767,167.731 259.361,167.731 259.954,166.004 260.548,165.889 261.142,165.726 261.735,165.511 262.329,165.334 262.922,166.835 263.516,166.835 264.110,165.081 264.703,165.019 265.297,164.818 265.890,164.621 266.484,164.410 267.078,165.939 267.671,165.939 268.265,164.180 268.858,164.094 269.452,163.923 270.046,163.702 270.639,163.521 271.233,165.044 271.826,165.044 272.420,163.308 273.014,163.208 273.607,163.020 274.201,162.832 274.795,162.611 275.388,164.148 275.982,164.148 276.575,162.404 277.169,162.303 277.763,162.139 278.356,161.913 278.950,161.723 279.543,163.253 280.137,163.253 280.731,161.479 281.324,161.431 281.918,161.211 282.511,161.010 283.105,162.536 283.699,162.536 284.292,162.536 284.886,160.783 285.479,160.690 286.073,160.507 286.667,160.272 287.260,161.820 287.854,161.820 288.447,161.820 289.041,160.052 289.635,159.973 290.228,159.796 290.822,159.570 291.416,159.416 292.009,160.924 292.603,160.924 293.196,159.178 293.790,159.061 294.384,158.889 294.977,158.660 295.571,158.538 296.164,160.029 296.758,160.029 297.352,158.291 297.945,158.189 298.539,157.992 299.132,157.781 299.726,157.632 300.320,159.133 300.913,159.133 301.507,157.365 302.100,157.277 302.694,157.100 303.288,156.892 303.881,156.701 304.475,158.237 305.068,158.237 305.662,156.498 306.256,156.394 306.849,156.188 307.443,155.984 308.037,155.814 308.630,157.342 309.224,157.342 309.817,155.565 310.411,155.477 311.005,155.307 311.598,155.096 312.192,154.918 312.785,156.446 313.379,156.446 313.973,154.678 314.566,154.612 315.160,154.404 315.753,154.184 316.347,154.028 316.941,155.551 317.534,155.551 318.128,153.786 318.721,153.699 319.315,153.507 319.909,153.297 320.502,153.122 321.096,154.655 321.689,154.655 322.283,152.916 322.877,152.799 323.470,152.617 324.064,152.409 324.658,152.237 325.251,153.760 325.845,153.760 326.438,151.993 327.032,151.891 327.626,151.737 328.219,151.540 328.813,151.331 329.406,152.864 330.000,152.864 330.594,151.118 331.187,151.023 331.781,150.844 332.374,150.614 332.968,150.424 333.562,151.968 334.155,151.968 334.749,150.204 335.342,150.116 335.936,149.943 336.530,149.729 337.123,149.527 337.717,151.073 338.311,151.073 338.904,149.312 339.498,149.228 340.091,149.051 340.685,148.852 341.279,148.631 341.872,150.177 342.466,150.177 343.059,148.404 343.653,148.318 344.247,148.134 344.840,147.949 345.434,147.754 346.027,149.282 346.621,149.282 347.215,147.508 347.808,147.421 348.402,147.247 348.995,147.032 349.589,146.871 350.183,148.386 350.776,148.386 351.370,146.604 351.963,146.511 352.557,146.351 353.151,146.142 353.744,145.948 354.338,147.490 354.932,147.490 355.525,145.721 356.119,145.621 356.712,145.438 357.306,145.260 357.900,145.062 358.493,146.595 359.087,146.595 359.680,144.829 360.274,144.727 360.868,144.560 361.461,144.338 362.055,144.157 362.648,145.699 363.242,145.699 363.836,143.957 364.429,143.829 365.023,143.659 365.616,143.434 366.210,143.251 366.804,144.804 367.397,144.804 367.991,143.052 368.584,142.957 369.178,142.767 369.772,142.540 370.365,142.348 370.959,143.908 371.553,143.908 372.146,142.146 372.740,142.072 373.333,141.882 373.927,141.658 374.521,141.510 375.114,143.013 375.708,143.013 376.301,141.220 376.895,141.162 377.489,141.014 378.082,140.770 378.676,140.591 379.269,142.117 379.863,142.117 380.457,140.355 381.050,140.267 381.644,140.107 382.237,139.914 382.831,139.672 383.425,141.221 384.018,141.221 384.612,139.457 385.205,139.378 385.799,139.188 386.393,138.993 386.986,138.796 387.580,140.326 388.174,140.326 388.767,138.549 389.361,138.485 389.954,138.304 390.548,138.087 391.142,137.893 391.735,139.430 392.329,139.430 392.922,137.664 393.516,137.582 394.110,137.403 394.703,137.179 395.297,137.025 395.890,138.535 396.484,138.535 397.078,136.779 397.671,136.672 398.265,136.507 398.858,136.298 399.452,136.122 400.046,137.639 400.639,137.639 401.233,135.902 401.826,135.767 402.420,135.604 403.014,135.395 403.607,135.235 404.201,136.744 404.795,136.744 405.388,134.967 405.982,134.884 406.575,134.703 407.169,134.501 407.763,134.325 408.356,135.848 408.950,135.848 409.543,134.089 410.137,133.996 410.731,133.817 411.324,133.588 411.918,133.425 412.511,134.952 413.105,134.952 413.699,133.172 414.292,133.111 414.886,132.934 415.479,132.678 416.073,132.522 416.667,134.057 417.260,134.057 417.854,132.291 418.447,132.216 419.041,132.017 419.635,131.809 420.228,131.644 420.822,133.161 421.416,133.161 422.009,131.377 422.603,131.307 423.196,131.137 423.790,130.958 424.384,130.725 424.977,132.266 425.571,132.266 426.164,130.489 426.758,130.419 427.352,130.251 427.945,130.057 428.539,129.844 429.132,131.370 429.726,131.370 430.320,129.584 430.913,129.514 431.507,129.321 432.100,129.138 432.694,128.927 433.288,130.475 433.881,130.475 434.475,128.658 435.068,128.603 435.662,128.431 436.256,128.210 436.849,128.026 437.443,129.579 438.037,129.579 438.630,127.804 439.224,127.698 439.817,127.532 440.411,127.308 441.005,127.129 441.598,128.683 442.192,128.683 442.785,126.899 443.379,126.815 443.973,126.624 444.566,126.412 445.160,126.238 445.753,127.788 446.347,127.788 446.941,126.015 447.534,125.932 448.128,125.723 448.721,125.524 449.315,125.325 449.909,126.892 450.502,126.892 451.096,125.123 451.689,125.033 452.283,124.838 452.877,124.630 453.470,124.440 454.064,125.997 454.658,125.997 455.251,124.179 455.845,124.111 456.438,123.948 457.032,123.725 457.626,123.557 458.219,125.101 458.813,125.101 459.406,123.321 460.000,123.247 460.594,123.054 461.187,122.839 461.781,122.660 462.374,124.205 462.968,124.205 463.562,122.398 464.155,122.323 464.749,122.178 465.342,121.952 465.936,121.757 466.530,123.310 467.123,123.310 467.717,121.510 468.311,121.424 468.904,121.270 469.498,121.033 470.091,120.847 470.685,122.414 471.279,122.414 471.872,120.603 472.466,120.534 473.059,120.356 473.653,120.163 474.247,119.986 474.840,121.519 475.434,121.519 476.027,119.719 476.621,119.620 477.215,119.475 477.808,119.258 478.402,119.070 478.995,120.623 479.589,120.623 480.183,118.814 480.776,118.746 481.370,118.545 481.963,118.359 482.557,118.194 483.151,119.728 483.744,119.728 484.338,117.931 484.932,117.850 485.525,117.666 486.119,117.458 486.712,117.275 487.306,118.832 487.900,118.832 488.493,117.039 489.087,116.950 489.680,116.788 490.274,116.577 490.868,116.391 491.461,117.936 492.055,117.936 492.648,116.165 493.242,116.106 493.836,115.869 494.429,115.667 495.023,115.520 495.616,117.041 496.210,117.041 496.804,115.251 497.397,115.185 497.991,115.003 498.584,114.793 499.178,114.605 499.772,116.145 500.365,116.145 500.959,114.381 501.553,114.290 502.146,114.109 502.740,113.888 503.333,113.702 503.927,115.250 504.521,115.250 505.114,113.512 505.708,113.382 506.301,113.202 506.895,113.016 507.489,112.842 508.082,114.354 508.676,114.354 509.269,112.576 509.863,112.504 510.457,112.312 511.050,112.099 511.644,111.925 512.237,113.459 512.831,113.459 513.425,111.698 514.018,111.590 514.612,111.426 515.205,111.211 515.799,111.035 516.393,112.563 516.986,112.563 517.580,110.772 518.174,110.707 518.767,110.512 519.361,110.304 519.954,110.134 520.548,111.667 521.142,111.667 521.735,109.926 522.329,109.792 522.922,109.627 523.516,109.443 524.110,109.240 524.703,110.772 525.297,110.772 525.890,109.029 526.484,108.893 527.078,108.741 527.671,108.508 528.265,108.372 528.858,109.876 529.452,109.876 530.046,108.087 530.639,108.013 531.233,107.829 531.826,107.616 532.420,107.458 533.014,108.981 533.607,108.981 534.201,107.231 534.795,107.111 535.388,106.944 535.982,106.709 536.575,106.516 537.169,108.085 537.763,108.085 538.356,106.306 538.950,106.226 539.543,106.066 540.137,105.834 540.731,105.656 541.324,107.189 541.918,107.189 542.511,105.423 543.105,105.323 543.699,105.155 544.292,104.918 544.886,104.789 545.479,106.294 546.073,106.294 546.667,104.508 547.260,104.447 547.854,104.261 548.447,104.046 549.041,103.854 549.635,105.398 550.228,105.398 550.822,103.629 551.416,103.528 552.009,103.365 552.603,103.170 553.196,102.959 553.790,104.503 554.384,104.503 554.977,102.721 555.571,102.620 556.164,102.452 556.758,102.271 557.352,102.090 557.945,103.607 558.539,103.607 559.132,101.814 559.726,101.769 560.320,101.567 560.913,101.347 561.507,101.173 562.100,102.712 562.694,102.712 563.288,100.949 563.881,100.833 564.475,100.686 565.068,100.457 565.662,100.277 566.256,101.816 566.849,101.816 567.443,100.020 568.037,99.951 568.630,99.774 569.224,99.563 569.817,99.389 570.411,100.920 571.005,100.920 571.598,99.149 572.192,99.045 572.785,98.862 573.379,98.651 573.973,98.499 574.566,100.025 575.160,100.025 575.753,98.246 576.347,98.153 576.941,97.953 577.534,97.748 578.128,97.605 578.721,99.129 579.315,99.129 579.909,97.370 580.502,97.254 581.096,97.075 581.689,96.869 582.283,96.700 582.877,98.234 583.470,98.234 584.064,96.434 584.658,96.366 585.251,96.181 585.845,95.971 586.438,95.801 587.032,97.338 587.626,97.338 588.219,95.563 588.813,95.461 589.406,95.294 590.000,95.088 590.594,94.909 591.187,96.443 591.781,96.443 592.374,94.698 592.968,94.573 593.562,94.426 594.155,94.182 594.749,94.019 595.342,95.547 595.936,95.547 596.530,93.731 597.123,93.693 597.717,93.519 598.311,93.315 598.904,93.109 599.498,94.651 600.091,94.651 600.685,92.873 601.279,92.805 601.872,92.592 602.466,92.409 603.059,92.215 603.653,93.756 604.247,93.756 604.840,91.988 605.434,91.863 606.027,91.748 606.621,91.477 607.215,91.341 607.808,92.860 608.402,92.860 608.995,91.094 609.589,91.001 610.183,90.804 610.776,90.605 611.370,90.426 611.963,91.965 612.557,91.965 613.151,90.188 613.744,90.100 614.338,89.930 614.932,89.706 615.525,89.534 616.119,91.069 616.712,91.069 617.306,89.316 617.900,89.212 618.493,89.059 619.087,88.814 619.680,88.653 620.274,90.174 620.868,90.174 621.461,88.407 622.055,88.325 622.648,88.142 623.242,87.933 623.836,87.741 624.429,89.278 625.023,89.278 625.616,87.514 626.210,87.429 626.804,87.256 627.397,87.032 627.991,86.851 628.584,88.382 629.178,88.382 629.772,86.595 630.365,86.516 630.959,86.373 631.553,86.134 632.146,85.961 632.740,87.487 633.333,87.487 633.927,85.708 634.521,85.617 635.114,85.457 635.708,85.250 636.301,85.085 636.895,86.591 637.489,86.591 638.082,84.805 638.676,84.723 639.269,84.551 639.863,84.350 640.457,84.202 641.050,85.696 641.644,85.696 642.237,83.881 642.831,83.844 643.425,83.657 644.018,83.435 644.612,83.269 645.205,84.800 645.799,84.800 646.393,82.998 646.986,82.925 647.580,82.749 648.174,82.545 648.767,82.412 649.361,83.904 649.954,83.904 650.548,82.101 651.142,82.040 651.735,81.839 652.329,81.662 652.922,81.479 653.516,83.009 654.110,83.009 654.703,81.230 655.297,81.159 655.890,80.951 656.484,80.747 657.078,80.559 657.671,82.113 658.265,82.113 658.858,80.345 659.452,80.265 660.046,80.079 660.639,79.849 661.233,79.679 661.826,81.218 662.420,81.218 663.014,79.462 663.607,79.355 664.201,79.167 664.795,78.966 665.388,78.805 665.982,80.322 666.575,80.322 667.169,78.547 667.763,78.443 668.356,78.282 668.950,78.065 669.543,77.888 670.137,79.427 670.731,79.427 671.324,77.661 671.918,77.555 672.511,77.386 673.105,77.173 673.699,76.958 674.292,78.531 674.886,78.531 675.479,76.742 676.073,76.640 676.667,76.455 677.260,76.269 677.854,76.100 678.447,77.635 679.041,77.635 679.635,75.853 680.228,75.742 680.822,75.577 681.416,75.377 682.009,75.205 682.603,76.740 683.196,76.740 683.790,74.976 684.384,74.877 684.977,74.673 685.571,74.460 686.164,74.282 686.758,75.844 687.352,75.844 687.945,74.067 688.539,73.958 689.132,73.779 689.726,73.562 690.320,73.430 690.913,74.949 691.507,74.949 692.100,73.165 692.694,73.075 693.288,72.891 693.881,72.663 694.475,72.504 695.068,74.053 695.662,74.053 696.256,72.269 696.849,72.189 697.443,71.970 698.037,71.794 698.630,71.599 699.224,73.158 699.817,73.158 700.411,71.386 701.005,71.293 701.598,71.114 702.192,70.872 702.785,70.702 703.379,72.262 703.973,72.262 704.566,70.489 705.160,70.388 705.753,70.209 706.347,70.014 706.941,69.828 707.534,71.366 708.128,71.366 708.721,69.586 709.315,69.500 709.909,69.319 710.502,69.110 711.096,68.927 711.689,70.471 712.283,70.471 712.877,68.701 713.470,68.592 714.064,68.447 714.658,68.209 715.251,68.035 715.845,69.575 716.438,69.575 717.032,67.777 717.626,67.718 718.219,67.526 718.813,67.335 719.406,67.143 720.000,68.680"/>
<text x="70" y="232">0</text><text x="720" y="232" text-anchor="end">1095 days</text>
<text x="70" y="258">Formal authority / linear credit share deviation (TV [0,1])</text>
<path d="M70,270V420H720" fill="none" stroke="#404040"/>
<text x="60" y="424" text-anchor="end">0</text>
<text x="60" y="349.0" text-anchor="end">0.147</text>
<text x="60" y="274" text-anchor="end">0.295</text>
<polyline class="line" points="70.000,420.000 70.594,420.000 71.187,420.000 71.781,277.285 72.374,277.285 72.968,277.143 73.562,281.484 74.155,286.064 74.749,290.886 75.342,294.932 75.936,298.322 76.530,298.460 77.123,298.460 77.717,300.666 78.311,303.166 78.904,305.346 79.498,307.601 80.091,309.816 80.685,309.777 81.279,309.777 81.872,311.545 82.466,312.651 83.059,314.600 83.653,315.613 84.247,317.570 84.840,317.570 85.434,317.696 86.027,318.239 86.621,319.413 87.215,319.909 87.808,320.686 88.402,321.377 88.995,321.377 89.589,321.377 90.183,322.105 90.776,322.588 91.370,323.227 91.963,323.828 92.557,324.026 93.151,324.026 93.744,324.026 94.338,324.429 94.932,324.872 95.525,325.211 96.119,325.617 96.712,326.117 97.306,326.117 97.900,326.160 98.493,326.529 99.087,327.026 99.680,327.230 100.274,327.308 100.868,327.442 101.461,327.442 102.055,327.124 102.648,327.600 103.242,327.531 103.836,327.767 104.429,328.020 105.023,328.210 105.616,328.210 106.210,328.210 106.804,328.600 107.397,328.696 107.991,329.050 108.584,329.167 109.178,329.409 109.772,329.409 110.365,329.409 110.959,329.682 111.553,329.742 112.146,329.980 112.740,330.265 113.333,330.421 113.927,330.566 114.521,330.566 115.114,330.754 115.708,330.659 116.301,330.969 116.895,331.264 117.489,331.256 118.082,331.161 118.676,331.182 119.269,331.287 119.863,331.429 120.457,331.552 121.050,331.705 121.644,332.031 122.237,332.123 122.831,332.123 123.425,332.191 124.018,332.181 124.612,332.315 125.205,332.652 125.799,332.617 126.393,332.617 126.986,332.617 127.580,332.751 128.174,332.785 128.767,332.915 129.361,332.986 129.954,333.110 130.548,333.110 131.142,333.110 131.735,333.113 132.329,333.249 132.922,333.432 133.516,333.569 134.110,333.664 134.703,333.664 135.297,333.664 135.890,333.607 136.484,333.692 137.078,333.866 137.671,333.982 138.265,333.970 138.858,333.970 139.452,333.970 140.046,334.018 140.639,334.150 141.233,334.145 141.826,334.239 142.420,334.398 143.014,334.294 143.607,334.294 144.201,334.285 144.795,334.323 145.388,334.311 145.982,334.316 146.575,334.358 147.169,334.358 147.763,334.358 148.356,334.371 148.950,334.549 149.543,334.538 150.137,334.580 150.731,334.635 151.324,334.670 151.918,334.670 152.511,334.713 153.105,334.663 153.699,334.707 154.292,334.813 154.886,334.907 155.479,334.907 156.073,334.907 156.667,334.964 157.260,334.946 157.854,334.974 158.447,335.028 159.041,335.024 159.635,335.024 160.228,335.024 160.822,335.040 161.416,335.015 162.009,334.988 162.603,335.055 163.196,335.021 163.790,335.021 164.384,335.021 164.977,335.039 165.571,335.083 166.164,335.127 166.758,335.182 167.352,335.207 167.945,335.158 168.539,335.158 169.132,335.138 169.726,335.204 170.320,335.214 170.913,335.282 171.507,335.152 172.100,335.152 172.694,335.152 173.288,335.333 173.881,335.213 174.475,335.325 175.068,335.563 175.662,335.566 176.256,335.566 176.849,335.566 177.443,335.577 178.037,335.630 178.630,335.759 179.224,335.793 179.817,335.732 180.411,335.732 181.005,335.732 181.598,335.787 182.192,335.769 182.785,335.690 183.379,335.813 183.973,335.798 184.566,335.798 185.160,335.798 185.753,335.813 186.347,335.803 186.941,335.852 187.534,335.906 188.128,335.894 188.721,335.894 189.315,335.894 189.909,335.922 190.502,335.902 191.096,336.000 191.689,335.835 192.283,335.958 192.877,335.857 193.470,335.857 194.064,335.988 194.658,336.009 195.251,336.064 195.845,336.090 196.438,336.087 197.032,336.087 197.626,336.087 198.219,336.136 198.813,336.197 199.406,336.185 200.000,336.213 200.594,336.131 201.187,336.131 201.781,336.131 202.374,336.164 202.968,336.189 203.562,336.193 204.155,336.174 204.749,336.180 205.342,336.180 205.936,336.180 206.530,336.194 207.123,336.189 207.717,336.171 208.311,336.181 208.904,336.262 209.498,336.262 210.091,336.262 210.685,336.352 211.279,336.371 211.872,336.320 212.466,336.329 213.059,336.212 213.653,336.272 214.247,336.372 214.840,336.432 215.434,336.409 216.027,336.423 216.621,336.378 217.215,336.500 217.808,336.500 218.402,336.500 218.995,336.459 219.589,336.434 220.183,336.444 220.776,336.457 221.370,336.551 221.963,336.551 222.557,336.551 223.151,336.385 223.744,336.528 224.338,336.565 224.932,336.524 225.525,336.541 226.119,336.541 226.712,336.541 227.306,336.533 227.900,336.543 228.493,336.728 229.087,336.696 229.680,336.719 230.274,336.705 230.868,336.705 231.461,336.775 232.055,336.675 232.648,336.723 233.242,336.704 233.836,336.817 234.429,336.817 235.023,336.703 235.616,336.692 236.210,336.690 236.804,336.776 237.397,336.791 237.991,336.801 238.584,336.801 239.178,336.801 239.772,336.826 240.365,336.739 240.959,336.795 241.553,336.750 242.146,336.807 242.740,336.807 243.333,336.875 243.927,336.928 244.521,336.946 245.114,336.749 245.708,336.772 246.301,336.790 246.895,336.790 247.489,336.940 248.082,336.885 248.676,336.936 249.269,336.901 249.863,336.801 250.457,336.852 251.050,336.852 251.644,336.852 252.237,336.839 252.831,336.807 253.425,336.837 254.018,336.825 254.612,336.848 255.205,336.848 255.799,336.797 256.393,336.758 256.986,336.803 257.580,336.616 258.174,336.651 258.767,336.671 259.361,336.671 259.954,337.063 260.548,337.055 261.142,336.974 261.735,337.035 262.329,337.104 262.922,336.909 263.516,336.909 264.110,336.862 264.703,336.843 265.297,336.847 265.890,336.816 266.484,336.783 267.078,336.949 267.671,336.949 268.265,336.949 268.858,336.948 269.452,336.994 270.046,336.984 270.639,336.981 271.233,336.952 271.826,336.952 272.420,336.952 273.014,336.929 273.607,336.954 274.201,337.070 274.795,337.086 275.388,337.060 275.982,337.095 276.575,337.095 277.169,337.116 277.763,337.103 278.356,337.269 278.950,337.243 279.543,337.312 280.137,337.351 280.731,337.351 281.324,337.286 281.918,337.294 282.511,337.331 283.105,337.329 283.699,337.453 284.292,337.434 284.886,337.434 285.479,337.394 286.073,337.382 286.667,337.369 287.260,337.386 287.854,337.386 288.447,337.441 289.041,337.480 289.635,337.403 290.228,337.387 290.822,337.367 291.416,337.386 292.009,337.331 292.603,337.331 293.196,337.315 293.790,337.325 294.384,337.355 294.977,337.381 295.571,337.334 296.164,337.420 296.758,337.420 297.352,337.420 297.945,337.413 298.539,337.460 299.132,337.498 299.726,337.480 300.320,337.517 300.913,337.517 301.507,337.517 302.100,337.536 302.694,337.460 303.288,337.448 303.881,337.455 304.475,337.506 305.068,337.506 305.662,337.506 306.256,337.412 306.849,337.642 307.443,337.594 308.037,337.636 308.630,337.584 309.224,337.584 309.817,337.584 310.411,337.595 311.005,337.551 311.598,337.534 312.192,337.534 312.785,337.536 313.379,337.536 313.973,337.536 314.566,337.631 315.160,337.599 315.753,337.613 316.347,337.639 316.941,337.589 317.534,337.589 318.128,337.494 318.721,337.669 319.315,337.647 319.909,337.716 320.502,337.716 321.096,337.725 321.689,337.673 322.283,337.725 322.877,337.750 323.470,337.673 324.064,337.699 324.658,337.707 325.251,337.738 325.845,337.738 326.438,337.738 327.032,337.739 327.626,337.770 328.219,337.737 328.813,337.811 329.406,337.798 330.000,337.965 330.594,337.965 331.187,337.978 331.781,338.003 332.374,338.035 332.968,338.041 333.562,337.959 334.155,337.959 334.749,337.959 335.342,337.942 335.936,337.981 336.530,338.008 337.123,337.972 337.717,338.015 338.311,338.141 338.904,338.141 339.498,338.132 340.091,338.139 340.685,338.112 341.279,338.179 341.872,338.167 342.466,338.167 343.059,338.167 343.653,338.188 344.247,338.229 344.840,338.239 345.434,338.219 346.027,338.280 346.621,338.175 347.215,338.205 347.808,338.270 348.402,338.256 348.995,338.249 349.589,338.268 350.183,338.262 350.776,338.210 351.370,338.210 351.963,338.231 352.557,338.203 353.151,338.209 353.744,338.255 354.338,338.293 354.932,338.293 355.525,338.293 356.119,338.288 356.712,338.320 357.306,338.489 357.900,338.505 358.493,338.499 359.087,338.499 359.680,338.499 360.274,338.475 360.868,338.503 361.461,338.517 362.055,338.515 362.648,338.575 363.242,338.521 363.836,338.521 364.429,338.551 365.023,338.569 365.616,338.672 366.210,338.667 366.804,338.644 367.397,338.644 367.991,338.644 368.584,338.655 369.178,338.734 369.772,338.784 370.365,338.814 370.959,338.880 371.553,338.880 372.146,338.880 372.740,338.858 373.333,338.895 373.927,338.928 374.521,338.917 375.114,338.901 375.708,338.901 376.301,338.922 376.895,338.969 377.489,338.963 378.082,338.941 378.676,338.975 379.269,339.007 379.863,339.007 380.457,339.007 381.050,338.970 381.644,338.984 382.237,339.020 382.831,339.014 383.425,339.040 384.018,339.040 384.612,339.093 385.205,339.106 385.799,339.158 386.393,339.178 386.986,339.179 387.580,339.157 388.174,339.157 388.767,339.230 389.361,339.232 389.954,339.254 390.548,339.255 391.142,339.267 391.735,339.307 392.329,339.383 392.922,339.415 393.516,339.418 394.110,339.432 394.703,339.436 395.297,339.406 395.890,339.414 396.484,339.414 397.078,339.414 397.671,339.399 398.265,339.400 398.858,339.389 399.452,339.387 400.046,339.386 400.639,339.386 401.233,339.386 401.826,339.410 402.420,339.425 403.014,339.427 403.607,339.346 404.201,339.412 404.795,339.409 405.388,339.409 405.982,339.412 406.575,339.404 407.169,339.398 407.763,339.421 408.356,339.437 408.950,339.437 409.543,339.380 410.137,339.354 410.731,339.342 411.324,339.358 411.918,339.376 412.511,339.514 413.105,339.514 413.699,339.514 414.292,339.525 414.886,339.525 415.479,339.546 416.073,339.475 416.667,339.561 417.260,339.561 417.854,339.561 418.447,339.625 419.041,339.582 419.635,339.605 420.228,339.657 420.822,339.624 421.416,339.624 422.009,339.624 422.603,339.673 423.196,339.683 423.790,339.687 424.384,339.658 424.977,339.681 425.571,339.681 426.164,339.796 426.758,339.823 427.352,339.856 427.945,339.858 428.539,339.874 429.132,339.869 429.726,339.869 430.320,339.869 430.913,339.844 431.507,339.826 432.100,339.842 432.694,339.783 433.288,339.797 433.881,339.797 434.475,339.826 435.068,339.824 435.662,339.820 436.256,339.827 436.849,339.863 437.443,339.846 438.037,339.872 438.630,339.872 439.224,339.895 439.817,339.891 440.411,339.880 441.005,339.989 441.598,339.998 442.192,339.998 442.785,339.998 443.379,339.998 443.973,339.985 444.566,340.045 445.160,340.027 445.753,340.030 446.347,340.030 446.941,339.976 447.534,340.012 448.128,339.994 448.721,339.983 449.315,339.985 449.909,340.016 450.502,340.016 451.096,340.016 451.689,340.028 452.283,340.041 452.877,340.042 453.470,340.112 454.064,340.102 454.658,340.102 455.251,340.183 455.845,340.195 456.438,340.304 457.032,340.299 457.626,340.295 458.219,340.285 458.813,340.285 459.406,340.285 460.000,340.323 460.594,340.316 461.187,340.329 461.781,340.349 462.374,340.375 462.968,340.405 463.562,340.478 464.155,340.477 464.749,340.415 465.342,340.401 465.936,340.404 466.530,340.364 467.123,340.364 467.717,340.364 468.311,340.405 468.904,340.348 469.498,340.360 470.091,340.343 470.685,340.395 471.279,340.395 471.872,340.395 472.466,340.346 473.059,340.348 473.653,340.358 474.247,340.377 474.840,340.390 475.434,340.390 476.027,340.390 476.621,340.307 477.215,340.326 477.808,340.331 478.402,340.320 478.995,340.322 479.589,340.322 480.183,340.266 480.776,340.314 481.370,340.313 481.963,340.348 482.557,340.294 483.151,340.296 483.744,340.214 484.338,340.214 484.932,340.209 485.525,340.219 486.119,340.208 486.712,340.195 487.306,340.212 487.900,340.212 488.493,340.212 489.087,340.341 489.680,340.301 490.274,340.214 490.868,340.238 491.461,340.231 492.055,340.111 492.648,340.098 493.242,340.105 493.836,340.115 494.429,340.116 495.023,340.125 495.616,340.172 496.210,340.172 496.804,340.199 497.397,340.231 497.991,340.237 498.584,340.365 499.178,340.256 499.772,340.265 500.365,340.265 500.959,340.265 501.553,340.208 502.146,340.188 502.740,340.371 503.333,340.416 503.927,340.228 504.521,340.228 505.114,340.228 505.708,340.208 506.301,340.197 506.895,340.235 507.489,340.211 508.082,340.197 508.676,340.197 509.269,340.197 509.863,340.216 510.457,340.221 511.050,340.193 511.644,340.191 512.237,340.203 512.831,340.318 513.425,340.318 514.018,340.334 514.612,340.346 515.205,340.387 515.799,340.382 516.393,340.284 516.986,340.284 517.580,340.284 518.174,340.268 518.767,340.280 519.361,340.236 519.954,340.236 520.548,340.263 521.142,340.263 521.735,340.263 522.329,340.314 522.922,340.345 523.516,340.323 524.110,340.312 524.703,340.257 525.297,340.257 525.890,340.257 526.484,340.250 527.078,340.395 527.671,340.426 528.265,340.417 528.858,340.390 529.452,340.387 530.046,340.387 530.639,340.413 531.233,340.435 531.826,340.401 532.420,340.408 533.014,340.378 533.607,340.378 534.201,340.306 534.795,340.340 535.388,340.335 535.982,340.337 536.575,340.347 537.169,340.337 537.763,340.337 538.356,340.337 538.950,340.309 539.543,340.311 540.137,340.330 540.731,340.315 541.324,340.306 541.918,340.306 542.511,340.306 543.105,340.412 543.699,340.373 544.292,340.388 544.886,340.380 545.479,340.351 546.073,340.351 546.667,340.331 547.260,340.385 547.854,340.380 548.447,340.348 549.041,340.332 549.635,340.343 550.228,340.423 550.822,340.423 551.416,340.413 552.009,340.501 552.603,340.480 553.196,340.519 553.790,340.511 554.384,340.511 554.977,340.510 555.571,340.522 556.164,340.636 556.758,340.608 557.352,340.614 557.945,340.588 558.539,340.611 559.132,340.611 559.726,340.642 560.320,340.661 560.913,340.673 561.507,340.637 562.100,340.636 562.694,340.580 563.288,340.580 563.881,340.563 564.475,340.601 565.068,340.608 565.662,340.614 566.256,340.591 566.849,340.591 567.443,340.591 568.037,340.570 568.630,340.779 569.224,340.764 569.817,340.794 570.411,340.733 571.005,340.733 571.598,340.733 572.192,340.724 572.785,340.745 573.379,340.725 573.973,340.859 574.566,340.848 575.160,340.848 575.753,340.938 576.347,340.945 576.941,340.958 577.534,340.960 578.128,341.005 578.721,340.975 579.315,340.975 579.909,341.039 580.502,341.226 581.096,341.235 581.689,341.232 582.283,341.261 582.877,341.280 583.470,341.303 584.064,341.303 584.658,341.275 585.251,341.285 585.845,341.164 586.438,341.161 587.032,341.202 587.626,341.202 588.219,341.202 588.813,341.241 589.406,341.279 590.000,341.299 590.594,341.287 591.187,341.316 591.781,341.372 592.374,341.372 592.968,341.357 593.562,341.215 594.155,341.202 594.749,341.229 595.342,341.228 595.936,341.228 596.530,341.228 597.123,341.255 597.717,341.226 598.311,341.223 598.904,341.214 599.498,341.218 600.091,341.218 600.685,341.218 601.279,341.228 601.872,341.235 602.466,341.244 603.059,341.232 603.653,341.265 604.247,341.212 604.840,341.212 605.434,341.221 606.027,341.194 606.621,341.205 607.215,341.240 607.808,341.229 608.402,341.229 608.995,341.173 609.589,341.191 610.183,341.179 610.776,341.176 611.370,341.175 611.963,341.310 612.557,341.310 613.151,341.310 613.744,341.389 614.338,341.386 614.932,341.419 615.525,341.420 616.119,341.397 616.712,341.397 617.306,341.397 617.900,341.417 618.493,341.439 619.087,341.441 619.680,341.407 620.274,341.430 620.868,341.430 621.461,341.429 622.055,341.433 622.648,341.455 623.242,341.583 623.836,341.585 624.429,341.480 625.023,341.480 625.616,341.480 626.210,341.500 626.804,341.507 627.397,341.532 627.991,341.508 628.584,341.525 629.178,341.551 629.772,341.551 630.365,341.581 630.959,341.569 631.553,341.573 632.146,341.581 632.740,341.599 633.333,341.599 633.927,341.599 634.521,341.598 635.114,341.610 635.708,341.595 636.301,341.594 636.895,341.603 637.489,341.630 638.082,341.733 638.676,341.720 639.269,341.743 639.863,341.757 640.457,341.731 641.050,341.745 641.644,341.717 642.237,341.717 642.831,341.733 643.425,341.679 644.018,341.739 644.612,341.742 645.205,341.789 645.799,341.789 646.393,341.789 646.986,341.953 647.580,341.904 648.174,341.889 648.767,341.906 649.361,341.895 649.954,341.980 650.548,341.932 651.142,341.928 651.735,341.934 652.329,341.938 652.922,341.969 653.516,341.986 654.110,341.986 654.703,342.093 655.297,342.071 655.890,342.044 656.484,342.052 657.078,342.052 657.671,342.049 658.265,342.049 658.858,342.103 659.452,342.078 660.046,342.150 660.639,342.173 661.233,342.224 661.826,342.200 662.420,342.200 663.014,342.200 663.607,342.216 664.201,342.230 664.795,342.206 665.388,342.223 665.982,342.241 666.575,342.241 667.169,342.241 667.763,342.267 668.356,342.257 668.950,342.268 669.543,342.256 670.137,342.244 670.731,342.244 671.324,342.244 671.918,342.247 672.511,342.270 673.105,342.274 673.699,342.173 674.292,342.172 674.886,342.172 675.479,342.172 676.073,342.182 676.667,342.212 677.260,342.128 677.854,342.126 678.447,342.113 679.041,342.261 679.635,342.261 680.228,342.230 680.822,342.223 681.416,342.246 682.009,342.245 682.603,342.253 683.196,342.253 683.790,342.253 684.384,342.387 684.977,342.400 685.571,342.410 686.164,342.388 686.758,342.391 687.352,342.226 687.945,342.226 688.539,342.248 689.132,342.261 689.726,342.261 690.320,342.249 690.913,342.250 691.507,342.250 692.100,342.272 692.694,342.321 693.288,342.293 693.881,342.452 694.475,342.376 695.068,342.385 695.662,342.466 696.256,342.466 696.849,342.453 697.443,342.455 698.037,342.341 698.630,342.326 699.224,342.302 699.817,342.359 700.411,342.359 701.005,342.356 701.598,342.372 702.192,342.368 702.785,342.371 703.379,342.405 703.973,342.405 704.566,342.405 705.160,342.376 705.753,342.393 706.347,342.515 706.941,342.578 707.534,342.590 708.128,342.590 708.721,342.590 709.315,342.596 709.909,342.476 710.502,342.492 711.096,342.464 711.689,342.500 712.283,342.500 712.877,342.644 713.470,342.648 714.064,342.584 714.658,342.686 715.251,342.687 715.845,342.803 716.438,342.803 717.032,342.803 717.626,342.893 718.219,342.887 718.813,342.856 719.406,342.867 720.000,342.863"/>
<text x="70" y="442">0</text><text x="720" y="442" text-anchor="end">1095 days</text>
<text x="70" y="480">Recorded daily snapshots; line connects observations. No empirical calibration or uncertainty interval.</text></svg>